{
  "accessors": [
    {
      "bufferView": 2,
      "componentType": 5126,
      "count": 65532,
      "max": [
        1.0193350315093994,
        0.3140699863433838,
        0.9073659777641296
      ],
      "min": [
        0.3946320116519928,
        -0.26156899333000183,
        0.10715200006961823
      ],
      "type": "VEC3"
    },
    {
      "bufferView": 2,
      "byteOffset": 786384,
      "componentType": 5126,
      "count": 65532,
      "max": [
        0.9999724626541138,
        0.9999477863311768,
        0.9999719858169556
      ],
      "min": [
        -0.9999905824661255,
        -0.9999419450759888,
        -0.999811589717865
      ],
      "type": "VEC3"
    },
    {
      "bufferView": 1,
      "componentType": 5126,
      "count": 65532,
      "max": [
        0.9955989718437195,
        0.9999790191650391
      ],
      "min": [
        0.00010800000018207356,
        4.8000001697801054e-05
      ],
      "type": "VEC2"
    },
    {
      "bufferView": 0,
      "componentType": 5125,
      "count": 219285,
      "type": "SCALAR"
    },
    {
      "bufferView": 2,
      "byteOffset": 1572768,
      "componentType": 5126,
      "count": 20685,
      "max": [
        0.9851229786872864,
        0.3141619861125946,
        0.8706619739532471
      ],
      "min": [
        0.3869459927082062,
        -0.2600409984588623,
        0.11414100229740143
      ],
      "type": "VEC3"
    },
    {
      "bufferView": 2,
      "byteOffset": 1820988,
      "componentType": 5126,
      "count": 20685,
      "max": [
        0.9999747276306152,
        0.9995871186256409,
        0.9999874830245972
      ],
      "min": [
        -0.9999308586120605,
        -0.9998844861984253,
        -0.9975811243057251
      ],
      "type": "VEC3"
    },
    {
      "bufferView": 1,
      "byteOffset": 524256,
      "componentType": 5126,
      "count": 20685,
      "max": [
        0.9989050030708313,
        0.9937400221824646
      ],
      "min": [
        0.018681000918149948,
        0.0340999998152256
      ],
      "type": "VEC2"
    },
    {
      "bufferView": 0,
      "byteOffset": 877140,
      "componentType": 5125,
      "count": 68577,
      "type": "SCALAR"
    },
    {
      "bufferView": 2,
      "byteOffset": 2069208,
      "componentType": 5126,
      "count": 65532,
      "max": [
        0.28200098872184753,
        0.26124000549316406,
        1.0130740404129028
      ],
      "min": [
        -0.2604610025882721,
        -0.35938000679016113,
        0.10180599987506866
      ],
      "type": "VEC3"
    },
    {
      "bufferView": 2,
      "byteOffset": 2855592,
      "componentType": 5126,
      "count": 65532,
      "max": [
        0.9998891353607178,
        0.9999619722366333,
        0.9999990463256836
      ],
      "min": [
        -0.9999526739120483,
        -0.9999415874481201,
        -0.9998912811279297
      ],
      "type": "VEC3"
    },
    {
      "bufferView": 1,
      "byteOffset": 689736,
      "componentType": 5126,
      "count": 65532,
      "max": [
        0.9983369708061218,
        0.9999459981918335
      ],
      "min": [
        6.199999916134402e-05,
        9.899999713525176e-05
      ],
      "type": "VEC2"
    },
    {
      "bufferView": 0,
      "byteOffset": 1151448,
      "componentType": 5125,
      "count": 219918,
      "type": "SCALAR"
    },
    {
      "bufferView": 2,
      "byteOffset": 3641976,
      "componentType": 5126,
      "count": 24213,
      "max": [
        0.28100699186325073,
        0.1940629929304123,
        1.0125199556350708
      ],
      "min": [
        -0.24932700395584106,
        -0.34831398725509644,
        0.10045100003480911
      ],
      "type": "VEC3"
    },
    {
      "bufferView": 2,
      "byteOffset": 3932532,
      "componentType": 5126,
      "count": 24213,
      "max": [
        0.9999715089797974,
        0.9996199011802673,
        0.9998260140419006
      ],
      "min": [
        -0.9999070167541504,
        -0.9999949932098389,
        -0.9999114274978638
      ],
      "type": "VEC3"
    },
    {
      "bufferView": 1,
      "byteOffset": 1213992,
      "componentType": 5126,
      "count": 24213,
      "max": [
        0.9788939952850342,
        0.9594320058822632
      ],
      "min": [
        0.05619899928569794,
        0.013608000241219997
      ],
      "type": "VEC2"
    },
    {
      "bufferView": 0,
      "byteOffset": 2031120,
      "componentType": 5125,
      "count": 80082,
      "type": "SCALAR"
    },
    {
      "bufferView": 2,
      "byteOffset": 4223088,
      "componentType": 5126,
      "count": 65532,
      "max": [
        -0.3306959867477417,
        0.39523398876190186,
        0.6930919885635376
      ],
      "min": [
        -0.8833829760551453,
        -0.4376470148563385,
        0.1041949987411499
      ],
      "type": "VEC3"
    },
    {
      "bufferView": 2,
      "byteOffset": 5009472,
      "componentType": 5126,
      "count": 65532,
      "max": [
        0.9999303817749023,
        0.999995231628418,
        0.9999039173126221
      ],
      "min": [
        -0.9999094009399414,
        -0.9998911619186401,
        -0.9999312162399292
      ],
      "type": "VEC3"
    },
    {
      "bufferView": 1,
      "byteOffset": 1407696,
      "componentType": 5126,
      "count": 65532,
      "max": [
        0.9955790042877197,
        0.9999179840087891
      ],
      "min": [
        6.600000051548705e-05,
        0.0
      ],
      "type": "VEC2"
    },
    {
      "bufferView": 0,
      "byteOffset": 2351448,
      "componentType": 5125,
      "count": 217506,
      "type": "SCALAR"
    },
    {
      "bufferView": 2,
      "byteOffset": 5795856,
      "componentType": 5126,
      "count": 22397,
      "max": [
        -0.32970699667930603,
        0.3909670114517212,
        0.6910060048103333
      ],
      "min": [
        -0.8686209917068481,
        -0.32829999923706055,
        0.10629499703645706
      ],
      "type": "VEC3"
    },
    {
      "bufferView": 2,
      "byteOffset": 6064620,
      "componentType": 5126,
      "count": 22397,
      "max": [
        0.9999536275863647,
        0.9999654293060303,
        0.9993569850921631
      ],
      "min": [
        -0.9999202489852905,
        -0.9994575381278992,
        -0.9997304081916809
      ],
      "type": "VEC3"
    },
    {
      "bufferView": 1,
      "byteOffset": 1931952,
      "componentType": 5126,
      "count": 22397,
      "max": [
        0.9548630118370056,
        0.9402710199356079
      ],
      "min": [
        0.04668299853801727,
        0.032503001391887665
      ],
      "type": "VEC2"
    },
    {
      "bufferView": 0,
      "byteOffset": 3221472,
      "componentType": 5125,
      "count": 74466,
      "type": "SCALAR"
    }
  ],
  "asset": {
    "extras": {
      "author": "Andrei Alexandrescu (https://sketchfab.com/Andrei_Alexandrescu)",
      "license": "CC-BY-4.0 (http://creativecommons.org/licenses/by/4.0/)",
      "source": "https://sketchfab.com/3d-models/dragons-statuettes-723504c81f804cb79791da23e42df201",
      "title": "Dragons Statuettes"
    },
    "generator": "Sketchfab-15.30.0",
    "version": "2.0"
  },
  "bufferViews": [
    {
      "buffer": 0,
      "byteLength": 3519336,
      "name": "floatBufferViews",
      "target": 34963
    },
    {
      "buffer": 0,
      "byteLength": 2111128,
      "byteOffset": 3519336,
      "byteStride": 8,
      "name": "floatBufferViews",
      "target": 34962
    },
    {
      "buffer": 0,
      "byteLength": 6333384,
      "byteOffset": 5630464,
      "byteStride": 12,
      "name": "floatBufferViews",
      "target": 34962
    }
  ],
  "buffers": [
    {
      "byteLength": 11963848,
      "uri": "scene.bin"
    }
  ],
  "extensionsUsed": [
    "KHR_materials_unlit"
  ],
  "images": [
    {
      "uri": "textures/Material.004_baseColor.png"
    },
    {
      "uri": "textures/Material.005_baseColor.png"
    },
    {
      "uri": "textures/Material.006_baseColor.png"
    }
  ],
  "materials": [
    {
      "doubleSided": true,
      "extensions": {
        "KHR_materials_unlit": {}
      },
      "name": "Material.004",
      "pbrMetallicRoughness": {
        "baseColorTexture": {
          "index": 0
        },
        "metallicFactor": 0.0
      }
    },
    {
      "doubleSided": true,
      "extensions": {
        "KHR_materials_unlit": {}
      },
      "name": "Material.005",
      "pbrMetallicRoughness": {
        "baseColorTexture": {
          "index": 1
        },
        "metallicFactor": 0.0
      }
    },
    {
      "doubleSided": true,
      "extensions": {
        "KHR_materials_unlit": {}
      },
      "name": "Material.006",
      "pbrMetallicRoughness": {
        "baseColorTexture": {
          "index": 2
        },
        "metallicFactor": 0.0
      }
    }
  ],
  "meshes": [
    {
      "name": "Object_0",
      "primitives": [
        {
          "attributes": {
            "NORMAL": 1,
            "POSITION": 0,
            "TEXCOORD_0": 2
          },
          "indices": 3,
          "material": 0,
          "mode": 4
        }
      ]
    },
    {
      "name": "Object_1",
      "primitives": [
        {
          "attributes": {
            "NORMAL": 5,
            "POSITION": 4,
            "TEXCOORD_0": 6
          },
          "indices": 7,
          "material": 0,
          "mode": 4
        }
      ]
    },
    {
      "name": "Object_2",
      "primitives": [
        {
          "attributes": {
            "NORMAL": 9,
            "POSITION": 8,
            "TEXCOORD_0": 10
          },
          "indices": 11,
          "material": 1,
          "mode": 4
        }
      ]
    },
    {
      "name": "Object_3",
      "primitives": [
        {
          "attributes": {
            "NORMAL": 13,
            "POSITION": 12,
            "TEXCOORD_0": 14
          },
          "indices": 15,
          "material": 1,
          "mode": 4
        }
      ]
    },
    {
      "name": "Object_4",
      "primitives": [
        {
          "attributes": {
            "NORMAL": 17,
            "POSITION": 16,
            "TEXCOORD_0": 18
          },
          "indices": 19,
          "material": 2,
          "mode": 4
        }
      ]
    },
    {
      "name": "Object_5",
      "primitives": [
        {
          "attributes": {
            "NORMAL": 21,
            "POSITION": 20,
            "TEXCOORD_0": 22
          },
          "indices": 23,
          "material": 2,
          "mode": 4
        }
      ]
    }
  ],
  "nodes": [
    {
      "children": [
        1
      ],
      "matrix": [
        1.0,
        0.0,
        0.0,
        0.0,
        0.0,
        2.220446049250313e-16,
        -1.0,
        0.0,
        0.0,
        1.0,
        2.220446049250313e-16,
        0.0,
        0.0,
        0.0,
        0.0,
        1.0
      ],
      "name": "Sketchfab_model"
    },
    {
      "children": [
        2,
        3,
        4,
        5,
        6,
        7
      ],
      "name": "Dragons.obj.cleaner.materialmerger.gles"
    },
    {
      "mesh": 0,
      "name": "Object_2"
    },
    {
      "mesh": 1,
      "name": "Object_3"
    },
    {
      "mesh": 2,
      "name": "Object_4"
    },
    {
      "mesh": 3,
      "name": "Object_5"
    },
    {
      "mesh": 4,
      "name": "Object_6"
    },
    {
      "mesh": 5,
      "name": "Object_7"
    }
  ],
  "samplers": [
    {
      "magFilter": 9729,
      "minFilter": 9987,
      "wrapS": 10497,
      "wrapT": 10497
    }
  ],
  "scene": 0,
  "scenes": [
    {
      "name": "Sketchfab_Scene",
      "nodes": [
        0
      ]
    }
  ],
  "textures": [
    {
      "sampler": 0,
      "source": 0
    },
    {
      "sampler": 0,
      "source": 1
    },
    {
      "sampler": 0,
      "source": 2
    }
  ]
}
